<svg xmlns="http://www.w3.org/2000/svg" aria-hidden="true" overflow="hidden" style="position:absolute;width:0;height:0">
  <defs>
    <symbol id="icon-logo-hotel" viewBox="0 0 32 32">
    <path fill="#d4af37" style="fill: var(--color1, #d4af37)" d="M21.261 3.355l-0.017-0.032c-1.139-1.983-3.277-3.32-5.728-3.323h-0.001c-2.45 0.004-4.587 1.34-5.743 3.355h-7.433c-1.089 0-1.997 0.832-2.277 1.97-0.083 0.324-0.107 0.608 0.083 0.902l0.002 0.004c0.177 0.274 0.485 0.456 0.836 0.458h0.11v24.422h28.889v-24.422h0.089c0.343-0.001 0.646-0.175 0.827-0.443 0.19-0.281 0.179-0.546 0.104-0.862-0.28-1.166-1.201-2.029-2.309-2.029h-7.433zM8.872 30.687v-24h1.111v23.314h-0.421c-0.379 0-0.69 0.311-0.69 0.689zM21.516 30.001h-0.422v-23.314h1.112v24c-0.003-0.379-0.31-0.686-0.69-0.687h-0zM4.428 21.451v2.648c0 0.19-0.156 0.346-0.356 0.346h-1.524c-0.189-0.001-0.342-0.154-0.344-0.344v-2.65c0-0.188 0.154-0.344 0.344-0.344h1.534c0.19 0 0.344 0.155 0.344 0.344zM7.761 21.451v2.648c0 0.19-0.155 0.346-0.356 0.346h-1.522c-0.189-0.001-0.342-0.154-0.344-0.344v-2.65c0-0.188 0.154-0.344 0.344-0.344h1.534c0.188 0 0.344 0.155 0.344 0.344zM4.428 15.886v2.649c0 0.19-0.156 0.345-0.356 0.345h-1.524c-0.189-0.001-0.342-0.154-0.344-0.344v-2.65c0-0.188 0.154-0.344 0.344-0.344h1.534c0.19 0 0.344 0.155 0.344 0.344zM7.761 15.886v2.649c0 0.19-0.155 0.345-0.356 0.345h-1.522c-0.189-0.001-0.342-0.154-0.344-0.344v-2.65c0-0.188 0.154-0.344 0.344-0.344h1.534c0.188 0 0.344 0.155 0.344 0.344zM4.428 10.347v2.648c0 0.19-0.156 0.344-0.356 0.344h-1.524c-0.189-0.001-0.342-0.154-0.344-0.344v-2.65c0-0.19 0.154-0.344 0.344-0.344h1.534c0.19 0 0.344 0.156 0.344 0.345zM7.761 10.347v2.647c0 0.19-0.155 0.344-0.356 0.344h-1.522c-0.189-0.001-0.342-0.154-0.344-0.344v-2.649c0-0.19 0.154-0.344 0.344-0.344h1.534c0.188 0 0.344 0.154 0.344 0.344zM25.532 21.452v2.647c0 0.19-0.156 0.346-0.345 0.346h-1.527c-0.001 0-0.002 0-0.002 0-0.19 0-0.344-0.154-0.344-0.344 0 0 0 0 0 0v0-2.65c0-0.188 0.155-0.344 0.344-0.344h1.527c0.19 0 0.347 0.155 0.347 0.344zM28.871 21.452v2.647c0 0.19-0.155 0.346-0.344 0.346h-1.527c-0.001 0-0.002 0-0.002 0-0.19 0-0.344-0.154-0.344-0.344 0 0 0 0 0 0v0-2.65c0-0.188 0.156-0.344 0.345-0.344h1.525c0.19 0 0.346 0.155 0.346 0.344zM25.531 15.886v2.649c0 0.19-0.156 0.345-0.345 0.345h-1.525c-0.001 0-0.002 0-0.002 0-0.19 0-0.344-0.154-0.344-0.344 0 0 0 0 0 0v0-2.65c0-0.188 0.155-0.344 0.344-0.344h1.527c0.19 0 0.346 0.155 0.346 0.344zM28.871 15.886v2.649c0 0.19-0.155 0.345-0.344 0.345h-1.527c-0.001 0-0.002 0-0.002 0-0.19 0-0.344-0.154-0.344-0.344 0 0 0 0 0 0v0-2.65c0-0.188 0.156-0.344 0.345-0.344h1.525c0.19 0 0.346 0.155 0.346 0.344zM25.531 10.345v2.648c0 0.19-0.156 0.344-0.345 0.344h-1.525c0 0 0 0 0 0-0.19 0-0.345-0.154-0.346-0.344v-2.649c0-0.19 0.155-0.344 0.344-0.344h1.527c0.19 0 0.346 0.154 0.346 0.344zM28.871 10.345v2.648c0 0.19-0.154 0.344-0.344 0.344v0h-1.527c0 0 0 0 0 0-0.19 0-0.345-0.154-0.346-0.344v-2.649c0-0.19 0.156-0.344 0.345-0.344h1.525c0.19 0 0.346 0.154 0.346 0.344zM14.427 12.568v2.644c0 0.19-0.155 0.345-0.346 0.345h-1.529c-0 0-0.001 0-0.001 0-0.19 0-0.345-0.154-0.346-0.344v-2.645c0-0.19 0.155-0.344 0.347-0.344h1.529c0.19 0 0.346 0.154 0.346 0.344zM14.58 27.78h-1.971c-0.223-0.001-0.403-0.181-0.403-0.404 0-0.003 0-0.005 0-0.008v0-5.144h2.777v5.144c0 0.001 0 0.003 0 0.005 0 0.223-0.18 0.404-0.403 0.405h-0zM16.094 21.114v-0.002h-1.111v0.002l-3.94-0.002c-0.001 0-0.002 0-0.004 0-0.276 0-0.5-0.223-0.501-0.499v-0c0.004-0.086 0.028-0.166 0.068-0.236l-0.001 0.003c0.005-0.003 0.009-0.007 0.012-0.012l0-0v-0.011c1.017-1.695 2.845-2.812 4.933-2.812s3.916 1.117 4.919 2.786l0.014 0.026c0.003 0.005 0.005 0.011 0.005 0.017 0 0.002-0 0.004-0 0.005l0-0c0 0.008 0.001 0.017 0.006 0.021 0.028 0.055 0.044 0.12 0.044 0.189 0 0.008-0 0.017-0.001 0.025l0-0.001c0 0 0 0 0 0 0 0.276-0.224 0.5-0.5 0.5-0.001 0-0.003 0-0.004 0h-1.161v0.001h-2.779zM16.095 22.225h2.777v5.144c0 0.233-0.185 0.411-0.403 0.411h-1.972c-0.217 0-0.403-0.178-0.403-0.41v-5.144zM18.872 15.213c0 0.188-0.156 0.344-0.346 0.344h-1.529c-0.192 0-0.347-0.155-0.347-0.345v-2.644c0.002-0.19 0.157-0.344 0.347-0.344 0 0 0 0 0 0h1.529c0 0 0 0 0 0 0.191 0 0.345 0.154 0.346 0.345v2.643zM17.217 4.446h0c0.3 0.001 0.543 0.244 0.544 0.544v4.466c0 0 0 0 0 0 0 0.3-0.243 0.544-0.543 0.545h-0.024c-0.299 0-0.542-0.245-0.542-0.545v-1.666h-2.228v1.666c0 0 0 0 0 0 0 0.3-0.243 0.544-0.543 0.545h-0.023c-0.299 0-0.543-0.245-0.543-0.545v-4.466c0 0 0 0 0 0 0-0.3 0.242-0.543 0.542-0.545h0.021c0 0 0 0 0 0 0.301 0 0.544 0.243 0.545 0.544v1.678h2.228v-1.677c0 0 0 0 0 0 0-0.3 0.243-0.544 0.543-0.545h0.021z"></path>
    </symbol>
  </defs>
</svg>
