<svg width="27" height="27" viewBox="0 0 27 27" fill="none" xmlns="http://www.w3.org/2000/svg">
<path fill-rule="evenodd" clip-rule="evenodd" d="M17.9388 2.83125H24.2107C25.1463 2.83125 25.9226 3.55875 26.1588 4.54313C26.2216 4.80938 26.231 5.0325 26.0707 5.26969C25.9939 5.38432 25.8901 5.47836 25.7685 5.54358C25.6469 5.60879 25.5112 5.64319 25.3732 5.64375H25.2982V26.25H0.923187V5.64375H0.829437C0.688247 5.64316 0.549463 5.60714 0.425801 5.539C0.302139 5.47087 0.197553 5.37279 0.121624 5.25375C-0.0377505 5.00625 -0.0171256 4.76625 0.0513119 4.4925C0.288499 3.53344 1.05444 2.83125 1.97319 2.83125H8.24506C8.73063 1.97305 9.435 1.25889 10.2864 0.761543C11.1378 0.264192 12.1059 0.00142102 13.0919 0C14.078 0.00142102 15.046 0.264192 15.8975 0.761543C16.7489 1.25889 17.4532 1.97305 17.9388 2.83125ZM7.48569 25.8938C7.48569 25.575 7.74819 25.3125 8.06787 25.3125H8.42319V5.64375H7.48569V25.8938ZM18.1535 25.3125H17.7982V5.64375H18.7357V25.8938C18.7357 25.575 18.4732 25.3125 18.1535 25.3125ZM3.73569 18.0994V20.3334C3.73569 20.4928 3.60444 20.625 3.43569 20.625H2.15131C1.99194 20.625 1.86069 20.4938 1.86069 20.3344V18.0994C1.86069 17.94 1.99194 17.8088 2.15131 17.8088H3.44506C3.60444 17.8088 3.73569 17.94 3.73569 18.0994ZM6.54819 18.0994V20.3334C6.54819 20.4928 6.41694 20.625 6.24819 20.625H4.96381C4.80444 20.625 4.67319 20.4938 4.67319 20.3344V18.0994C4.67319 17.94 4.80444 17.8088 4.96381 17.8088H6.25756C6.41694 17.8088 6.54819 17.94 6.54819 18.0994ZM3.73569 13.4044V15.6394C3.73569 15.7987 3.60444 15.93 3.43569 15.93H2.15131C1.99194 15.93 1.86069 15.7987 1.86069 15.6394V13.4044C1.86069 13.245 1.99194 13.1137 2.15131 13.1137H3.44506C3.60444 13.1137 3.73569 13.245 3.73569 13.4044ZM6.54819 13.4044V15.6394C6.54819 15.7987 6.41694 15.93 6.24819 15.93H4.96381C4.80444 15.93 4.67319 15.7987 4.67319 15.6394V13.4044C4.67319 13.245 4.80444 13.1137 4.96381 13.1137H6.25756C6.41694 13.1137 6.54819 13.245 6.54819 13.4044ZM3.73569 8.72906V10.9631C3.73569 11.1225 3.60444 11.2537 3.43569 11.2537H2.15131C1.99194 11.2537 1.86069 11.1225 1.86069 10.9631V8.72813C1.86069 8.56875 1.99194 8.4375 2.15131 8.4375H3.44506C3.60444 8.4375 3.73569 8.56969 3.73569 8.72906ZM6.54819 8.72813V10.9622C6.54819 11.1216 6.41694 11.2528 6.24819 11.2528H4.96381C4.80444 11.2528 4.67319 11.1216 4.67319 10.9622V8.72813C4.67319 8.56875 4.80444 8.4375 4.96381 8.4375H6.25756C6.41694 8.4375 6.54819 8.56875 6.54819 8.72813ZM21.5426 18.0984V20.3325C21.5426 20.4919 21.4113 20.6241 21.2519 20.6241H19.9638C19.9256 20.6242 19.8877 20.6168 19.8523 20.6022C19.8169 20.5877 19.7848 20.5663 19.7577 20.5393C19.7306 20.5123 19.7091 20.4802 19.6945 20.4449C19.6798 20.4096 19.6723 20.3717 19.6723 20.3334V18.0984C19.6723 17.9391 19.8035 17.8078 19.9629 17.8078H21.2501C21.4094 17.8078 21.5426 17.9391 21.5426 18.0984ZM24.3598 18.0984V20.3325C24.3598 20.4919 24.2285 20.6241 24.0691 20.6241H22.7819C22.7437 20.6242 22.7058 20.6168 22.6704 20.6022C22.6351 20.5877 22.6029 20.5663 22.5758 20.5393C22.5487 20.5123 22.5273 20.4802 22.5126 20.4449C22.4979 20.4096 22.4904 20.3717 22.4904 20.3334V18.0984C22.4904 17.9391 22.6216 17.8078 22.781 17.8078H24.0682C24.2276 17.8078 24.3598 17.9391 24.3598 18.0984ZM21.5416 13.4034V15.6384C21.5416 15.7978 21.4104 15.9291 21.251 15.9291H19.9638C19.9256 15.9292 19.8877 15.9218 19.8523 15.9072C19.8169 15.8927 19.7848 15.8713 19.7577 15.8443C19.7306 15.8173 19.7091 15.7852 19.6945 15.7499C19.6798 15.7146 19.6723 15.6767 19.6723 15.6384V13.4034C19.6723 13.2441 19.8035 13.1128 19.9629 13.1128H21.2501C21.4094 13.1128 21.5416 13.2441 21.5416 13.4034ZM24.3598 13.4034V15.6384C24.3598 15.7978 24.2285 15.9291 24.0691 15.9291H22.7819C22.7437 15.9292 22.7058 15.9218 22.6704 15.9072C22.6351 15.8927 22.6029 15.8713 22.5758 15.8443C22.5487 15.8173 22.5273 15.7852 22.5126 15.7499C22.4979 15.7146 22.4904 15.6767 22.4904 15.6384V13.4034C22.4904 13.2441 22.6216 13.1128 22.781 13.1128H24.0682C24.2276 13.1128 24.3598 13.2441 24.3598 13.4034ZM21.5416 8.72813V10.9622C21.5416 11.1216 21.4104 11.2528 21.251 11.2528H19.9638C19.9256 11.2529 19.8877 11.2455 19.8523 11.231C19.8169 11.2164 19.7848 11.195 19.7577 11.168C19.7306 11.141 19.7091 11.1089 19.6945 11.0736C19.6798 11.0383 19.6723 11.0004 19.6723 10.9622V8.72813C19.6723 8.56875 19.8035 8.4375 19.9629 8.4375H21.2501C21.4094 8.4375 21.5416 8.56875 21.5416 8.72813ZM24.3598 8.72813V10.9622C24.3598 11.1216 24.2285 11.2528 24.0691 11.2528H22.7819C22.7437 11.2529 22.7058 11.2455 22.6704 11.231C22.6351 11.2164 22.6029 11.195 22.5758 11.168C22.5487 11.141 22.5273 11.1089 22.5126 11.0736C22.4979 11.0383 22.4904 11.0004 22.4904 10.9622V8.72813C22.4904 8.56875 22.6216 8.4375 22.781 8.4375H24.0682C24.2276 8.4375 24.3598 8.56875 24.3598 8.72813ZM12.1732 10.6031V12.8344C12.1732 12.9937 12.0419 13.125 11.8807 13.125H10.5907C10.5524 13.1252 10.5144 13.1179 10.4789 13.1034C10.4434 13.0889 10.4112 13.0676 10.384 13.0405C10.3568 13.0135 10.3352 12.9814 10.3205 12.946C10.3058 12.9106 10.2982 12.8727 10.2982 12.8344V10.6031C10.2982 10.4438 10.4294 10.3125 10.5907 10.3125H11.8807C12.041 10.3125 12.1732 10.4438 12.1732 10.6031ZM12.3016 23.4375H10.6385C10.5933 23.4373 10.5486 23.4281 10.507 23.4105C10.4654 23.3929 10.4277 23.3672 10.3961 23.335C10.3644 23.3027 10.3395 23.2645 10.3227 23.2226C10.3059 23.1806 10.2976 23.1358 10.2982 23.0906V18.7519H12.6419V23.0916C12.6419 23.2884 12.4854 23.4375 12.3016 23.4375ZM13.5794 17.8144V17.8125H12.6419V17.8144H10.2982V17.8125H9.31756C9.26185 17.813 9.20658 17.8024 9.15496 17.7815C9.10335 17.7605 9.0564 17.7295 9.01682 17.6903C8.97725 17.651 8.94584 17.6044 8.9244 17.5529C8.90297 17.5015 8.89193 17.4463 8.89194 17.3906C8.89194 17.3156 8.92006 17.25 8.94819 17.1938C8.95381 17.1888 8.95694 17.1853 8.95756 17.1834V17.175C9.38572 16.4523 9.99471 15.8535 10.7246 15.4376C11.4544 15.0217 12.28 14.803 13.1201 14.8031C13.9601 14.803 14.7857 15.0217 15.5156 15.4376C16.2454 15.8535 16.8544 16.4523 17.2826 17.175C17.2863 17.18 17.2879 17.1863 17.2873 17.1938C17.2866 17.2013 17.2882 17.2075 17.2919 17.2125C17.3201 17.2594 17.3294 17.325 17.3294 17.3906C17.3294 17.4463 17.3184 17.5015 17.297 17.5529C17.2755 17.6044 17.2441 17.651 17.2046 17.6903C17.165 17.7295 17.118 17.7605 17.0664 17.7815C17.0148 17.8024 16.9595 17.813 16.9038 17.8125H15.9232V17.8144H13.5794ZM13.5794 18.7519V23.0916C13.5794 23.2884 13.736 23.4375 13.9198 23.4375H15.5829C15.7666 23.4375 15.9232 23.2875 15.9232 23.0906V18.7519H13.5794ZM15.9232 12.8344V10.6031C15.9232 10.4438 15.7919 10.3125 15.6307 10.3125H14.3407C14.2635 10.3127 14.1895 10.3434 14.1348 10.3978C14.08 10.4522 14.0489 10.526 14.0482 10.6031V12.8344C14.0482 12.9937 14.1794 13.125 14.3407 13.125H15.6307C15.791 13.125 15.9232 12.9937 15.9232 12.8344ZM14.5272 3.75H14.5085C14.387 3.7505 14.2706 3.79911 14.1849 3.88521C14.0991 3.9713 14.051 4.08787 14.051 4.20937V5.625H12.1713V4.20937C12.1713 4.08754 12.1229 3.9707 12.0368 3.88455C11.9506 3.7984 11.8338 3.75 11.7119 3.75H11.6932C11.5717 3.7505 11.4553 3.79911 11.3696 3.88521C11.2838 3.9713 11.2357 4.08787 11.2357 4.20937V7.97813C11.2357 8.23125 11.4419 8.4375 11.6941 8.4375H11.7129C11.8345 8.43725 11.9511 8.38874 12.0371 8.30262C12.123 8.2165 12.1713 8.0998 12.1713 7.97813V6.57188H14.051V7.97813C14.051 8.23125 14.2563 8.4375 14.5085 8.4375H14.5272C14.6489 8.43725 14.7655 8.38874 14.8515 8.30262C14.9374 8.2165 14.9857 8.0998 14.9857 7.97813V4.20937C14.9857 4.0877 14.9374 3.971 14.8515 3.88488C14.7655 3.79876 14.6489 3.75025 14.5272 3.75Z" fill="#D4AF37"/>
</svg>
